<svg xmlns="http://www.w3.org/2000/svg" viewBox="0 0 512 512">
  <defs>
    <linearGradient id="bgGradient" x1="0%" y1="0%" x2="0%" y2="100%">
      <stop offset="0%" style="stop-color:#1a1a2e;stop-opacity:1" />
      <stop offset="100%" style="stop-color:#16213e;stop-opacity:1" />
    </linearGradient>
    <linearGradient id="liquidGradient" x1="0%" y1="0%" x2="100%" y2="100%">
      <stop offset="0%" style="stop-color:#00f260;stop-opacity:1" />
      <stop offset="100%" style="stop-color:#0575e6;stop-opacity:1" />
    </linearGradient>
    <filter id="glow" x="-50%" y="-50%" width="200%" height="200%">
      <feGaussianBlur in="SourceGraphic" stdDeviation="15" result="blur" />
      <feColorMatrix in="blur" type="matrix" values="1 0 0 0 0  0 1 0 0 0  0 0 1 0 0  0 0 0 19 -9" result="goo" />
      <feComposite in="SourceGraphic" in2="goo" operator="atop"/>
    </filter>
    <filter id="neon" x="-100%" y="-100%" width="300%" height="300%">
        <feGaussianBlur stdDeviation="5" result="coloredBlur"/>
        <feMerge>
            <feMergeNode in="coloredBlur"/>
            <feMergeNode in="SourceGraphic"/>
        </feMerge>
    </filter>
  </defs>
  
  <!-- Background -->
  <rect width="512" height="512" rx="128" fill="url(#bgGradient)" />
  
  <!-- Flask Shape -->
  <g transform="translate(256, 270)" filter="url(#neon)">
    <!-- Liquid -->
    <path d="M-60 20 L -90 120 Q -100 150 0 150 Q 100 150 90 120 L 60 20 Z" fill="url(#liquidGradient)" opacity="0.9"/>
    
    <!-- Bubbles -->
    <circle cx="-20" cy="80" r="8" fill="rgba(255,255,255,0.4)">
      <animate attributeName="cy" from="120" to="20" dur="2s" repeatCount="indefinite" />
      <animate attributeName="opacity" values="0.4;0;0.4" dur="2s" repeatCount="indefinite" />
    </circle>
    <circle cx="30" cy="100" r="5" fill="rgba(255,255,255,0.3)">
      <animate attributeName="cy" from="120" to="40" dur="3s" repeatCount="indefinite" />
    </circle>
    
    <!-- Flask Outline -->
    <path d="M-30 -140 L -30 20 L -90 120 Q -100 150 0 150 Q 100 150 90 120 L 30 20 L 30 -140" fill="none" stroke="#ffffff" stroke-width="8" stroke-linecap="round" stroke-linejoin="round" />
    
    <!-- Rim -->
    <rect x="-40" y="-140" width="80" height="15" rx="5" fill="#ffffff" />
  </g>
  
  <!-- Sparkles -->
  <path d="M380 100 L 390 130 L 420 140 L 390 150 L 380 180 L 370 150 L 340 140 L 370 130 Z" fill="#fff" opacity="0.8">
    <animateTransform attributeName="transform" type="scale" values="1;0.5;1" dur="4s" repeatCount="indefinite" />
  </path>
  
</svg>
